PathFileType	4	(X/Y/Z)	jw_ngait_og1_rotated.trc
DataRate	CameraRate	NumFrames	NumMarkers	Units	OrigDataRate	OrigDataStartFrame	OrigNumFrames
120.000000	120.000000	6	56	mm	120.000000	1	327
Frame#	Times	Sternum			Neck			RShoulder			LShoulder			Xiphoid			Thoracic			RAsis			LAsis			RPsis			LPsis			Lumbar			RElbow			RWrist			RRadius			RUlna			LElbow			LWrist			LUlna			LRadius			LThighSuperior			LThighInferior			LThighLateral			LPatella			LShankSuperior			LShankInferior			LShankLateral			RThighSuperior			RThighInferior			RThighLateral			RPatella			RShankSuperior			RShankInferior			RShankLateral			RHeel			RToe			RMidfootMedial			RMidfootLateral			RHindfoot			RMidfootSuperior			RToeMedial			RToeLateral			LHeel			LToe			LMidfootMedial			LMidfootLateral			LHindfoot			LMidfootSuperior			LToeMedial			LToeLateral			LShoulderCenter			Oglobal			RShoulderCenter			Sacral			Xglobal			Yglobal			Zglobal			
		X1	Y1	Z1	X2	Y2	Z2	X3	Y3	Z3	X4	Y4	Z4	X5	Y5	Z5	X6	Y6	Z6	X7	Y7	Z7	X8	Y8	Z8	X9	Y9	Z9	X10	Y10	Z10	X11	Y11	Z11	X12	Y12	Z12	X13	Y13	Z13	X14	Y14	Z14	X15	Y15	Z15	X16	Y16	Z16	X17	Y17	Z17	X18	Y18	Z18	X19	Y19	Z19	X20	Y20	Z20	X21	Y21	Z21	X22	Y22	Z22	X23	Y23	Z23	X24	Y24	Z24	X25	Y25	Z25	X26	Y26	Z26	X27	Y27	Z27	X28	Y28	Z28	X29	Y29	Z29	X30	Y30	Z30	X31	Y31	Z31	X32	Y32	Z32	X33	Y33	Z33	X34	Y34	Z34	X35	Y35	Z35	X36	Y36	Z36	X37	Y37	Z37	X38	Y38	Z38	X39	Y39	Z39	X40	Y40	Z40	X41	Y41	Z41	X42	Y42	Z42	X43	Y43	Z43	X44	Y44	Z44	X45	Y45	Z45	X46	Y46	Z46	X47	Y47	Z47	X48	Y48	Z48	X49	Y49	Z49	X50	Y50	Z50	X51	Y51	Z51	X52	Y52	Z52	X53	Y53	Z53	X54	Y54	Z54	X55	Y55	Z55	X56	Y56	Z56	

1	0.95833	1663.9	1340.1	-182.26	1793.2	1461.5	-191.53	1725.9	1401	-363.28	1751	1404.4	-0.31121	1676.3	1223.8	-176.74	1897.3	1276.8	-181.03	1706.9	998.18	-312.21	1720.7	987.75	-39.526	1928.3	992.85	-202.13	1927.4	989.89	-141.75	1917.9	1060.6	-176.98	1796.3	1076.3	-459.41	1718.7	821.3	-453.41	1702.8	826.83	-417.14	1767.9	821.94	-453.86	1835.4	1082.8	66.937	1773.1	816.37	69.009	1823.7	814.57	59.967	1757.8	838.7	37.66	1718.9	827.69	9.4842	1588.7	615.73	-23.653	1587.8	744.78	-45.855	1517.2	547.87	-69.669	1589.4	467.83	-27.623	1617.3	210.23	-53.766	1566.1	335.1	-94.849	1784.4	806.17	-343.45	1797.5	568.7	-291.51	1738	655.18	-272.75	1777.8	501.84	-243.16	1898.4	395	-303.93	1909.6	161.34	-256.18	1856.7	256.18	-218.55	2011.5	55.845	-209.73	1717.5	38.348	-268.64	1791.3	30.291	-199.22	1824.9	36.567	-308.92	1905.7	22.237	-294.74	1837.5	104.04	-240.91	1750.3	31.358	-219	1765	37.093	-305.37	1701.7	70.972	-98.874	1409.5	107.06	-51.219	1487	78.723	-122.78	1513.4	78.797	-0.97537	1608.8	52.823	-24.868	1542.6	150.6	-71.241	1443	92.46	-95.174	1462.9	90.649	-10.228	1777.9	1362.4	-14.271	0	0	0	1751.8	1359.9	-365.3	1927.8	991.37	-171.94	200	0	0	0	0	-200	0	200	0
2	0.96667	1652.9	1338.5	-182.14	1782.1	1460.2	-191.22	1714.8	1399.8	-363.03	1740.2	1403	-0.10891	1665.2	1222.5	-177.02	1886.6	1275.8	-180.78	1700.4	996.46	-309.44	1710.5	986.28	-39.504	1918.1	991.74	-201.72	1917.3	988.94	-141.51	1909.3	1059.4	-172.91	1785	1075.2	-459.81	1706.7	820.37	-453.55	1690.9	825.96	-416.91	1755.8	821.01	-453.97	1826	1081.5	67.216	1767.6	814.84	69.174	1818.2	813.67	60.196	1751.3	836.92	37.157	1708.6	826.14	9.8551	1580.8	613.73	-24.47	1579	742.88	-44.411	1509.3	547.31	-69.634	1576.7	464.91	-27.758	1589.2	206.06	-53.543	1545.6	333.72	-95.718	1775.6	805.29	-343.19	1791.7	567.89	-291.43	1731.2	653.71	-271.89	1772.9	500.75	-242.79	1894.8	395.41	-303.63	1908.7	161.43	-256.25	1854.1	255.34	-217.75	2011.1	56.624	-209.44	1717.4	38.039	-268.68	1791.1	29.896	-199.15	1824.8	36.36	-308.82	1905.7	22.338	-294.67	1837	103.89	-240.78	1750	31.11	-219.1	1764.9	36.908	-305.71	1664.8	61.902	-98.866	1375.3	114.79	-52.59	1451	82.648	-123.78	1476.6	79.682	-1.8466	1570.2	47.956	-25.022	1510.7	150.36	-71.098	1407.9	98.777	-96.31	1426.7	94.301	-11.237	1766.9	1361	-14.226	0	0	0	1740.6	1358.6	-365.24	1917.7	990.34	-171.62	200	0	0	0	0	-200	0	200	0
3	0.975	1641.7	1336.8	-182.07	1771	1458.8	-190.96	1703.7	1398.3	-362.86	1729.1	1401.4	0.23366	1654.6	1220.8	-176.86	1875.8	1274.7	-180.35	1690.1	995.19	-309.47	1700.2	984.77	-39.18	1907.6	990.41	-201.22	1907	987.76	-141.09	1899	1058.1	-172.71	1773.7	1074	-460.07	1694.8	819.47	-453.62	1679	825.15	-417.09	1742.9	819.16	-452.82	1816.9	1080.5	67.386	1761.9	813.07	69.004	1812.7	812.62	60.388	1744.9	835.35	36.84	1698.9	824.38	10.756	1573.5	610.62	-25.208	1570.4	740.29	-42.912	1501.6	546.47	-69.663	1563.4	461.94	-28.406	1561.2	202.9	-53.432	1525.8	332.65	-96.482	1766.7	804.43	-342.93	1785.6	567.01	-291.21	1724.3	652.48	-271.89	1767.7	499.56	-242.66	1890.9	395.78	-303.23	1907.8	161.61	-256.32	1851.7	255.34	-218.07	2010.8	57.371	-209.16	1717.4	37.764	-268.8	1790.9	29.426	-199.2	1824.7	36.087	-308.82	1905.7	22.505	-294.58	1836.5	103.67	-240.75	1749.9	30.941	-219.14	1764.9	36.815	-305.96	1628.3	54.126	-99.002	1342.2	122.94	-53.507	1416.3	87.755	-124.9	1440.9	81.367	-2.8763	1531.7	44.52	-25.366	1479	151.32	-70.674	1374.1	105.79	-97.598	1392	99.394	-11.553	1755.7	1359.3	-14.158	0	0	0	1729.3	1357	-365.17	1907.3	989.08	-171.15	200	0	0	0	0	-200	0	200	0
4	0.98333	1630.7	1335.2	-181.85	1760	1457.6	-190.69	1692.8	1396.8	-362.53	1718	1399.8	0.55108	1644.4	1218.8	-176.54	1865	1273.5	-179.78	1679	993.54	-309.87	1689.5	983.18	-39.06	1897	988.92	-200.63	1896.6	986.35	-140.43	1888	1056.7	-173.17	1762.5	1072.6	-460.3	1682.9	818.44	-453.71	1667.2	824.28	-416.99	1730.8	817.88	-452.73	1807.6	1079.3	67.452	1756.1	811.42	69.076	1807	811.45	60.537	1738.3	833.71	36.34	1690.1	821.66	12.005	1563	608.23	-26.988	1562	736.98	-41.505	1494.2	545.09	-70.2	1551.1	459.33	-28.874	1533.8	200.65	-53.081	1506.4	331.93	-96.958	1757.6	803.4	-342.51	1779.3	566.02	-290.85	1717	651.12	-270.99	1762.5	498.38	-242.84	1886.9	396.16	-302.84	1906.2	162.46	-255.92	1848.8	255.42	-218.18	2010.5	58.321	-209.01	1717.2	37.272	-268.74	1790.8	29.004	-199.17	1824.6	35.804	-308.76	1905.7	22.713	-294.47	1835.8	103.52	-240.75	1749.8	30.669	-219.07	1764.8	36.648	-306.05	1592.2	48.513	-98.739	1309.9	131.88	-54.005	1382.7	94.469	-126.19	1405.5	84.451	-4.0602	1494.5	42.655	-26.126	1448.9	152.95	-70.227	1342.8	115.67	-100.33	1359.3	105.24	-11.876	1744.5	1357.9	-13.857	0	0	0	1718.4	1355.6	-364.89	1896.8	987.64	-170.53	200	0	0	0	0	-200	0	200	0
5	0.99167	1619.4	1333.6	-181.77	1748.7	1455.7	-190.19	1681.8	1395.2	-361.99	1706.7	1398	0.98094	1633.2	1217.4	-176.65	1854.1	1272	-179.1	1667.9	991.96	-309.96	1679	981.5	-38.384	1886.1	987.15	-199.95	1885.9	984.95	-139.77	1877.2	1055.2	-173.23	1751.5	1071.2	-460.53	1670.8	817.15	-453.53	1655.3	822.9	-417.12	1718.8	816.55	-452.81	1798.1	1078.1	67.701	1750.6	809.73	69.255	1801.1	810.28	60.765	1731.8	832.17	36.031	1682	818.34	13.742	1555.6	604.55	-27.451	1553.8	733.25	-40.115	1486.8	543.69	-71.164	1539.1	456.76	-29.113	1507.2	199.34	-52.663	1487.7	331.65	-97.545	1748.4	802.41	-342.15	1772.9	565.1	-290.66	1709.7	649.81	-270.72	1757.1	497.34	-243.1	1882.9	396.73	-302.62	1904.9	162.79	-255.6	1845.8	255.54	-218.45	2010.2	59.307	-208.77	1717.1	36.968	-268.89	1790.6	28.642	-199.16	1824.5	35.479	-308.72	1905.6	23	-294.24	1835.2	103.4	-240.82	1749.5	30.552	-219.28	1764.7	36.354	-305.91	1556.9	43.841	-98.58	1279.1	141.74	-54.929	1350.3	101.39	-126.48	1371.9	88.635	-4.3781	1459.5	42.406	-27.205	1419.2	155.5	-69.454	1310.5	122.85	-99.496	1327	111.81	-12.916	1733.2	1356	-13.656	0	0	0	1707.3	1354	-364.71	1886	986.05	-169.86	200	0	0	0	0	-200	0	200	0
6	1	1608	1331.8	-181.64	1737.6	1454.1	-189.61	1671.1	1393.5	-361.53	1695.1	1396.2	1.5633	1622.4	1215.5	-176.22	1843.2	1270.5	-178.24	1657.1	990.45	-309.87	1667.9	979.63	-38.077	1875.1	985.23	-199.07	1875.3	983.28	-139.03	1866.3	1053.4	-172.78	1740.5	1069.6	-460.73	1658.8	815.83	-453.31	1643.3	821.83	-416.69	1706.8	814.89	-452.76	1788.5	1076.8	67.914	1744.5	807.97	69.382	1795	809.04	60.974	1726	829.93	36.591	1673.1	815.66	15.063	1548.5	600.75	-27.391	1545.7	728.79	-38.896	1479.9	541.9	-72.172	1526.9	454.89	-30.292	1481.2	198.83	-51.907	1469.8	331.41	-98.783	1739.1	801.48	-341.85	1766.6	564.05	-290.38	1702.1	648.48	-269.95	1751.5	496.09	-242.95	1878.8	397.34	-302.26	1903.8	163.91	-255.34	1841.1	256.48	-219.45	2009.6	60.415	-208.42	1717.1	36.607	-269.4	1790.2	28.266	-199.39	1824.3	35.361	-308.86	1905.5	23.418	-294.17	1834.5	103.3	-240.89	1749.3	30.45	-219.36	1764.7	36.041	-306.1	1522.8	40.818	-98.11	1250	152.7	-56.091	1319.5	108.75	-126.67	1339.8	94.272	-4.5384	1426.5	43.665	-28.173	1391	158.85	-69.057	1280.3	132.73	-99.961	1295.8	119.16	-14.042	1721.4	1354.1	-13.272	0	0	0	1696.3	1352.2	-364.38	1875.2	984.25	-169.05	200	0	0	0	0	-200	0	200	0
